<mxfile host="app.diagrams.net" agent="Mozilla/5.0 (Windows NT 10.0; Win64; x64) AppleWebKit/537.36 (KHTML, like Gecko) Chrome/136.0.0.0 Safari/537.36" version="27.0.9">
  <diagram name="Página-1" id="64P_NPGaRn5wYiKogRGo">
    <mxGraphModel dx="2015" dy="648" grid="1" gridSize="10" guides="1" tooltips="1" connect="1" arrows="1" fold="1" page="1" pageScale="1" pageWidth="827" pageHeight="1169" math="0" shadow="0">
      <root>
        <mxCell id="0" />
        <mxCell id="1" parent="0" />
        <mxCell id="jW0h0iekPydfrRsHZEFX-2" value="ORGANIZADOR" style="rounded=0;whiteSpace=wrap;html=1;" parent="1" vertex="1">
          <mxGeometry x="624" y="120" width="110" height="40" as="geometry" />
        </mxCell>
        <mxCell id="jW0h0iekPydfrRsHZEFX-3" value="organiza" style="rhombus;whiteSpace=wrap;html=1;" parent="1" vertex="1">
          <mxGeometry x="394" y="100" width="90" height="80" as="geometry" />
        </mxCell>
        <mxCell id="jW0h0iekPydfrRsHZEFX-5" value="" style="endArrow=none;html=1;rounded=0;exitX=1;exitY=0.5;exitDx=0;exitDy=0;entryX=0;entryY=0.5;entryDx=0;entryDy=0;" parent="1" source="jW0h0iekPydfrRsHZEFX-3" target="jW0h0iekPydfrRsHZEFX-2" edge="1">
          <mxGeometry width="50" height="50" relative="1" as="geometry">
            <mxPoint x="390" y="430" as="sourcePoint" />
            <mxPoint x="440" y="380" as="targetPoint" />
          </mxGeometry>
        </mxCell>
        <mxCell id="jW0h0iekPydfrRsHZEFX-7" value="" style="ellipse;whiteSpace=wrap;html=1;aspect=fixed;" parent="1" vertex="1">
          <mxGeometry x="219" y="170" width="10" height="10" as="geometry" />
        </mxCell>
        <mxCell id="jW0h0iekPydfrRsHZEFX-8" value="" style="endArrow=none;html=1;rounded=0;" parent="1" edge="1">
          <mxGeometry width="50" height="50" relative="1" as="geometry">
            <mxPoint x="224" y="200" as="sourcePoint" />
            <mxPoint x="224" y="180" as="targetPoint" />
          </mxGeometry>
        </mxCell>
        <mxCell id="jW0h0iekPydfrRsHZEFX-9" value="" style="triangle;whiteSpace=wrap;html=1;rotation=90;" parent="1" vertex="1">
          <mxGeometry x="209" y="195" width="30" height="30" as="geometry" />
        </mxCell>
        <mxCell id="jW0h0iekPydfrRsHZEFX-10" value="&lt;font style=&quot;font-size: 6px;&quot;&gt;ES UN&lt;/font&gt;" style="text;html=1;align=center;verticalAlign=middle;whiteSpace=wrap;rounded=0;" parent="1" vertex="1">
          <mxGeometry x="211.5" y="195" width="25" height="10" as="geometry" />
        </mxCell>
        <mxCell id="jW0h0iekPydfrRsHZEFX-11" value="" style="endArrow=none;html=1;rounded=0;entryX=0;entryY=0.5;entryDx=0;entryDy=0;exitX=1;exitY=0;exitDx=0;exitDy=0;" parent="1" source="jW0h0iekPydfrRsHZEFX-10" target="jW0h0iekPydfrRsHZEFX-12" edge="1">
          <mxGeometry width="50" height="50" relative="1" as="geometry">
            <mxPoint x="239" y="200" as="sourcePoint" />
            <mxPoint x="264.21000000000004" y="185" as="targetPoint" />
          </mxGeometry>
        </mxCell>
        <mxCell id="jW0h0iekPydfrRsHZEFX-12" value="" style="ellipse;whiteSpace=wrap;html=1;aspect=fixed;" parent="1" vertex="1">
          <mxGeometry x="253.5" y="190" width="10" height="10" as="geometry" />
        </mxCell>
        <mxCell id="jW0h0iekPydfrRsHZEFX-13" value="" style="endArrow=none;html=1;rounded=0;exitX=0.5;exitY=0;exitDx=0;exitDy=0;entryX=0.5;entryY=1;entryDx=0;entryDy=0;" parent="1" source="jW0h0iekPydfrRsHZEFX-7" edge="1">
          <mxGeometry width="50" height="50" relative="1" as="geometry">
            <mxPoint x="300" y="300" as="sourcePoint" />
            <mxPoint x="223.99999999999977" y="160" as="targetPoint" />
          </mxGeometry>
        </mxCell>
        <mxCell id="jW0h0iekPydfrRsHZEFX-14" value="&lt;font style=&quot;font-size: 10px;&quot;&gt;Tipo&lt;/font&gt;" style="text;html=1;align=center;verticalAlign=middle;whiteSpace=wrap;rounded=0;" parent="1" vertex="1">
          <mxGeometry x="253.5" y="180" width="60" height="30" as="geometry" />
        </mxCell>
        <mxCell id="jW0h0iekPydfrRsHZEFX-15" value="FÍSICO" style="rounded=0;whiteSpace=wrap;html=1;" parent="1" vertex="1">
          <mxGeometry x="120" y="270" width="100" height="40" as="geometry" />
        </mxCell>
        <mxCell id="jW0h0iekPydfrRsHZEFX-16" value="ONLINE" style="rounded=0;whiteSpace=wrap;html=1;" parent="1" vertex="1">
          <mxGeometry x="236.5" y="270" width="100" height="40" as="geometry" />
        </mxCell>
        <mxCell id="jW0h0iekPydfrRsHZEFX-17" value="" style="endArrow=none;html=1;rounded=0;entryX=0.5;entryY=1;entryDx=0;entryDy=0;exitX=0.5;exitY=0;exitDx=0;exitDy=0;" parent="1" source="jW0h0iekPydfrRsHZEFX-15" target="jW0h0iekPydfrRsHZEFX-9" edge="1">
          <mxGeometry width="50" height="50" relative="1" as="geometry">
            <mxPoint x="90" y="420" as="sourcePoint" />
            <mxPoint x="140" y="370" as="targetPoint" />
          </mxGeometry>
        </mxCell>
        <mxCell id="jW0h0iekPydfrRsHZEFX-18" value="" style="endArrow=none;html=1;rounded=0;entryX=0.5;entryY=0;entryDx=0;entryDy=0;exitX=0.5;exitY=0;exitDx=0;exitDy=0;" parent="1" source="jW0h0iekPydfrRsHZEFX-16" target="jW0h0iekPydfrRsHZEFX-9" edge="1">
          <mxGeometry width="50" height="50" relative="1" as="geometry">
            <mxPoint x="90" y="420" as="sourcePoint" />
            <mxPoint x="140" y="370" as="targetPoint" />
          </mxGeometry>
        </mxCell>
        <mxCell id="jW0h0iekPydfrRsHZEFX-19" value="" style="shape=requiredInterface;html=1;verticalLabelPosition=bottom;sketch=0;rotation=90;" parent="1" vertex="1">
          <mxGeometry x="220" y="190" width="10" height="80" as="geometry" />
        </mxCell>
        <mxCell id="jW0h0iekPydfrRsHZEFX-21" value="registrarse" style="rhombus;whiteSpace=wrap;html=1;" parent="1" vertex="1">
          <mxGeometry x="-10" y="370" width="90" height="80" as="geometry" />
        </mxCell>
        <mxCell id="jW0h0iekPydfrRsHZEFX-22" value="USUARIO" style="rounded=0;whiteSpace=wrap;html=1;" parent="1" vertex="1">
          <mxGeometry x="170" y="520" width="100" height="40" as="geometry" />
        </mxCell>
        <mxCell id="jW0h0iekPydfrRsHZEFX-26" value="EVENTO" style="shape=ext;margin=3;double=1;whiteSpace=wrap;html=1;align=center;" parent="1" vertex="1">
          <mxGeometry x="173.99999999999994" y="120" width="100" height="40" as="geometry" />
        </mxCell>
        <mxCell id="jW0h0iekPydfrRsHZEFX-27" value="" style="endArrow=none;html=1;rounded=0;exitX=0.5;exitY=0;exitDx=0;exitDy=0;" parent="1" source="jW0h0iekPydfrRsHZEFX-21" edge="1">
          <mxGeometry width="50" height="50" relative="1" as="geometry">
            <mxPoint x="150" y="410" as="sourcePoint" />
            <mxPoint x="35" y="140" as="targetPoint" />
          </mxGeometry>
        </mxCell>
        <mxCell id="jW0h0iekPydfrRsHZEFX-29" value="" style="endArrow=none;html=1;rounded=0;exitX=0.5;exitY=1;exitDx=0;exitDy=0;" parent="1" source="jW0h0iekPydfrRsHZEFX-21" edge="1">
          <mxGeometry width="50" height="50" relative="1" as="geometry">
            <mxPoint x="80" y="380" as="sourcePoint" />
            <mxPoint x="35" y="540" as="targetPoint" />
          </mxGeometry>
        </mxCell>
        <mxCell id="jW0h0iekPydfrRsHZEFX-31" value="Id_organizador" style="text;html=1;align=center;verticalAlign=middle;whiteSpace=wrap;rounded=0;" parent="1" vertex="1">
          <mxGeometry x="624" y="55" width="60" height="30" as="geometry" />
        </mxCell>
        <mxCell id="jW0h0iekPydfrRsHZEFX-32" value="" style="ellipse;whiteSpace=wrap;html=1;aspect=fixed;fillColor=black;" parent="1" vertex="1">
          <mxGeometry x="651.5" y="85" width="10" height="10" as="geometry" />
        </mxCell>
        <mxCell id="jW0h0iekPydfrRsHZEFX-33" value="" style="endArrow=none;html=1;rounded=0;entryX=0.5;entryY=1;entryDx=0;entryDy=0;exitX=0.75;exitY=0;exitDx=0;exitDy=0;" parent="1" target="jW0h0iekPydfrRsHZEFX-32" edge="1">
          <mxGeometry width="50" height="50" relative="1" as="geometry">
            <mxPoint x="656.71" y="120" as="sourcePoint" />
            <mxPoint x="378.71000000000004" y="210" as="targetPoint" />
          </mxGeometry>
        </mxCell>
        <mxCell id="jW0h0iekPydfrRsHZEFX-34" value="Nombre" style="text;html=1;align=center;verticalAlign=middle;whiteSpace=wrap;rounded=0;" parent="1" vertex="1">
          <mxGeometry x="685.5" y="65" width="60" height="30" as="geometry" />
        </mxCell>
        <mxCell id="jW0h0iekPydfrRsHZEFX-35" value="" style="ellipse;whiteSpace=wrap;html=1;aspect=fixed;fillColor=none;" parent="1" vertex="1">
          <mxGeometry x="685.5" y="85" width="10" height="10" as="geometry" />
        </mxCell>
        <mxCell id="jW0h0iekPydfrRsHZEFX-36" value="" style="endArrow=none;html=1;rounded=0;entryX=0.5;entryY=1;entryDx=0;entryDy=0;exitX=0.75;exitY=0;exitDx=0;exitDy=0;" parent="1" target="jW0h0iekPydfrRsHZEFX-35" edge="1">
          <mxGeometry width="50" height="50" relative="1" as="geometry">
            <mxPoint x="690.71" y="120" as="sourcePoint" />
            <mxPoint x="412.71000000000004" y="210" as="targetPoint" />
          </mxGeometry>
        </mxCell>
        <mxCell id="jW0h0iekPydfrRsHZEFX-37" value="Teléfono" style="text;html=1;align=center;verticalAlign=middle;whiteSpace=wrap;rounded=0;" parent="1" vertex="1">
          <mxGeometry x="710" y="85" width="60" height="30" as="geometry" />
        </mxCell>
        <mxCell id="jW0h0iekPydfrRsHZEFX-38" value="" style="ellipse;whiteSpace=wrap;html=1;aspect=fixed;fillColor=none;" parent="1" vertex="1">
          <mxGeometry x="700" y="95" width="10" height="10" as="geometry" />
        </mxCell>
        <mxCell id="jW0h0iekPydfrRsHZEFX-39" value="" style="endArrow=none;html=1;rounded=0;entryX=0.5;entryY=1;entryDx=0;entryDy=0;" parent="1" target="jW0h0iekPydfrRsHZEFX-38" edge="1">
          <mxGeometry width="50" height="50" relative="1" as="geometry">
            <mxPoint x="705" y="120" as="sourcePoint" />
            <mxPoint x="427.21000000000004" y="220" as="targetPoint" />
          </mxGeometry>
        </mxCell>
        <mxCell id="jW0h0iekPydfrRsHZEFX-40" value="Correo" style="text;html=1;align=center;verticalAlign=middle;whiteSpace=wrap;rounded=0;" parent="1" vertex="1">
          <mxGeometry x="760" y="115" width="60" height="30" as="geometry" />
        </mxCell>
        <mxCell id="jW0h0iekPydfrRsHZEFX-41" value="" style="ellipse;whiteSpace=wrap;html=1;aspect=fixed;fillColor=none;" parent="1" vertex="1">
          <mxGeometry x="760" y="135" width="10" height="10" as="geometry" />
        </mxCell>
        <mxCell id="jW0h0iekPydfrRsHZEFX-42" value="" style="endArrow=none;html=1;rounded=0;entryX=0;entryY=0.5;entryDx=0;entryDy=0;exitX=1;exitY=0.5;exitDx=0;exitDy=0;" parent="1" source="jW0h0iekPydfrRsHZEFX-2" target="jW0h0iekPydfrRsHZEFX-41" edge="1">
          <mxGeometry width="50" height="50" relative="1" as="geometry">
            <mxPoint x="765.21" y="170" as="sourcePoint" />
            <mxPoint x="487.21000000000004" y="260" as="targetPoint" />
          </mxGeometry>
        </mxCell>
        <mxCell id="jW0h0iekPydfrRsHZEFX-43" value="" style="ellipse;whiteSpace=wrap;html=1;aspect=fixed;fillColor=black;" parent="1" vertex="1">
          <mxGeometry x="171.5" y="45" width="10" height="10" as="geometry" />
        </mxCell>
        <mxCell id="jW0h0iekPydfrRsHZEFX-44" value="" style="endArrow=none;html=1;rounded=0;entryX=0.5;entryY=1;entryDx=0;entryDy=0;exitX=0.75;exitY=0;exitDx=0;exitDy=0;" parent="1" target="jW0h0iekPydfrRsHZEFX-43" edge="1">
          <mxGeometry width="50" height="50" relative="1" as="geometry">
            <mxPoint x="176.71000000000004" y="120" as="sourcePoint" />
            <mxPoint x="-101.28999999999996" y="210" as="targetPoint" />
          </mxGeometry>
        </mxCell>
        <mxCell id="jW0h0iekPydfrRsHZEFX-45" value="Id_evento" style="text;html=1;align=center;verticalAlign=middle;whiteSpace=wrap;rounded=0;" parent="1" vertex="1">
          <mxGeometry x="181.5" y="25" width="60" height="30" as="geometry" />
        </mxCell>
        <mxCell id="jW0h0iekPydfrRsHZEFX-46" value="Tipo" style="text;html=1;align=center;verticalAlign=middle;whiteSpace=wrap;rounded=0;" parent="1" vertex="1">
          <mxGeometry x="181.5" y="75" width="60" height="30" as="geometry" />
        </mxCell>
        <mxCell id="jW0h0iekPydfrRsHZEFX-47" value="" style="ellipse;whiteSpace=wrap;html=1;aspect=fixed;fillColor=none;" parent="1" vertex="1">
          <mxGeometry x="196" y="95" width="10" height="10" as="geometry" />
        </mxCell>
        <mxCell id="jW0h0iekPydfrRsHZEFX-48" value="" style="endArrow=none;html=1;rounded=0;entryX=0.5;entryY=1;entryDx=0;entryDy=0;exitX=0.27;exitY=0;exitDx=0;exitDy=0;exitPerimeter=0;" parent="1" source="jW0h0iekPydfrRsHZEFX-26" target="jW0h0iekPydfrRsHZEFX-47" edge="1">
          <mxGeometry width="50" height="50" relative="1" as="geometry">
            <mxPoint x="170" y="100" as="sourcePoint" />
            <mxPoint x="-76.78999999999996" y="220" as="targetPoint" />
          </mxGeometry>
        </mxCell>
        <mxCell id="jW0h0iekPydfrRsHZEFX-49" value="Nombre" style="text;html=1;align=center;verticalAlign=middle;whiteSpace=wrap;rounded=0;" parent="1" vertex="1">
          <mxGeometry x="229" y="85" width="60" height="30" as="geometry" />
        </mxCell>
        <mxCell id="jW0h0iekPydfrRsHZEFX-50" value="" style="ellipse;whiteSpace=wrap;html=1;aspect=fixed;fillColor=none;" parent="1" vertex="1">
          <mxGeometry x="224.5" y="95" width="10" height="10" as="geometry" />
        </mxCell>
        <mxCell id="jW0h0iekPydfrRsHZEFX-51" value="" style="endArrow=none;html=1;rounded=0;entryX=0.5;entryY=1;entryDx=0;entryDy=0;exitX=0.27;exitY=0;exitDx=0;exitDy=0;exitPerimeter=0;" parent="1" target="jW0h0iekPydfrRsHZEFX-50" edge="1">
          <mxGeometry width="50" height="50" relative="1" as="geometry">
            <mxPoint x="229.5" y="120" as="sourcePoint" />
            <mxPoint x="-48.289999999999964" y="220" as="targetPoint" />
          </mxGeometry>
        </mxCell>
        <mxCell id="jW0h0iekPydfrRsHZEFX-52" value="Duración" style="text;html=1;align=center;verticalAlign=middle;whiteSpace=wrap;rounded=0;" parent="1" vertex="1">
          <mxGeometry x="300" y="80" width="60" height="30" as="geometry" />
        </mxCell>
        <mxCell id="jW0h0iekPydfrRsHZEFX-53" value="" style="ellipse;whiteSpace=wrap;html=1;aspect=fixed;fillColor=none;" parent="1" vertex="1">
          <mxGeometry x="291.5" y="100" width="10" height="10" as="geometry" />
        </mxCell>
        <mxCell id="jW0h0iekPydfrRsHZEFX-54" value="" style="endArrow=none;html=1;rounded=0;entryX=0;entryY=0.5;entryDx=0;entryDy=0;exitX=1;exitY=0.5;exitDx=0;exitDy=0;" parent="1" target="jW0h0iekPydfrRsHZEFX-53" edge="1">
          <mxGeometry width="50" height="50" relative="1" as="geometry">
            <mxPoint x="270" y="120" as="sourcePoint" />
            <mxPoint x="23.210000000000036" y="240" as="targetPoint" />
          </mxGeometry>
        </mxCell>
        <mxCell id="jW0h0iekPydfrRsHZEFX-55" value="Fecha" style="text;html=1;align=center;verticalAlign=middle;whiteSpace=wrap;rounded=0;" parent="1" vertex="1">
          <mxGeometry x="300" y="140" width="60" height="30" as="geometry" />
        </mxCell>
        <mxCell id="jW0h0iekPydfrRsHZEFX-56" value="" style="ellipse;whiteSpace=wrap;html=1;aspect=fixed;fillColor=none;" parent="1" vertex="1">
          <mxGeometry x="300" y="145" width="10" height="10" as="geometry" />
        </mxCell>
        <mxCell id="jW0h0iekPydfrRsHZEFX-57" value="" style="endArrow=none;html=1;rounded=0;entryX=0;entryY=0.5;entryDx=0;entryDy=0;exitX=1;exitY=0.5;exitDx=0;exitDy=0;" parent="1" target="jW0h0iekPydfrRsHZEFX-56" edge="1">
          <mxGeometry width="50" height="50" relative="1" as="geometry">
            <mxPoint x="274" y="150" as="sourcePoint" />
            <mxPoint x="27.210000000000036" y="270" as="targetPoint" />
          </mxGeometry>
        </mxCell>
        <mxCell id="jW0h0iekPydfrRsHZEFX-58" value="Sitio_web" style="text;html=1;align=center;verticalAlign=middle;whiteSpace=wrap;rounded=0;" parent="1" vertex="1">
          <mxGeometry x="372.5" y="285" width="60" height="30" as="geometry" />
        </mxCell>
        <mxCell id="jW0h0iekPydfrRsHZEFX-59" value="" style="ellipse;whiteSpace=wrap;html=1;aspect=fixed;fillColor=none;" parent="1" vertex="1">
          <mxGeometry x="362.5" y="295" width="10" height="10" as="geometry" />
        </mxCell>
        <mxCell id="jW0h0iekPydfrRsHZEFX-60" value="" style="endArrow=none;html=1;rounded=0;entryX=0;entryY=0.5;entryDx=0;entryDy=0;exitX=1;exitY=0.5;exitDx=0;exitDy=0;" parent="1" target="jW0h0iekPydfrRsHZEFX-59" edge="1">
          <mxGeometry width="50" height="50" relative="1" as="geometry">
            <mxPoint x="336.5" y="300" as="sourcePoint" />
            <mxPoint x="89.71000000000004" y="420" as="targetPoint" />
          </mxGeometry>
        </mxCell>
        <mxCell id="jW0h0iekPydfrRsHZEFX-61" value="" style="ellipse;whiteSpace=wrap;html=1;aspect=fixed;fillColor=black;" parent="1" vertex="1">
          <mxGeometry x="362.5" y="272.5" width="10" height="10" as="geometry" />
        </mxCell>
        <mxCell id="jW0h0iekPydfrRsHZEFX-62" value="" style="endArrow=none;html=1;rounded=0;exitX=1;exitY=0.179;exitDx=0;exitDy=0;entryX=0;entryY=0.5;entryDx=0;entryDy=0;exitPerimeter=0;" parent="1" source="jW0h0iekPydfrRsHZEFX-16" target="jW0h0iekPydfrRsHZEFX-61" edge="1">
          <mxGeometry width="50" height="50" relative="1" as="geometry">
            <mxPoint x="367.71000000000004" y="307.5" as="sourcePoint" />
            <mxPoint x="360" y="280" as="targetPoint" />
          </mxGeometry>
        </mxCell>
        <mxCell id="jW0h0iekPydfrRsHZEFX-63" value="Id_online" style="text;html=1;align=center;verticalAlign=middle;whiteSpace=wrap;rounded=0;" parent="1" vertex="1">
          <mxGeometry x="372.5" y="262.5" width="60" height="30" as="geometry" />
        </mxCell>
        <mxCell id="jW0h0iekPydfrRsHZEFX-64" value="" style="ellipse;whiteSpace=wrap;html=1;aspect=fixed;fillColor=black;" parent="1" vertex="1">
          <mxGeometry x="80" y="275" width="10" height="10" as="geometry" />
        </mxCell>
        <mxCell id="jW0h0iekPydfrRsHZEFX-65" value="" style="endArrow=none;html=1;rounded=0;entryX=1;entryY=0.5;entryDx=0;entryDy=0;exitX=0;exitY=0.25;exitDx=0;exitDy=0;" parent="1" source="jW0h0iekPydfrRsHZEFX-15" target="jW0h0iekPydfrRsHZEFX-64" edge="1">
          <mxGeometry width="50" height="50" relative="1" as="geometry">
            <mxPoint x="85.21000000000004" y="310" as="sourcePoint" />
            <mxPoint x="-192.78999999999996" y="400" as="targetPoint" />
          </mxGeometry>
        </mxCell>
        <mxCell id="jW0h0iekPydfrRsHZEFX-66" value="Id_fisico" style="text;html=1;align=center;verticalAlign=middle;whiteSpace=wrap;rounded=0;" parent="1" vertex="1">
          <mxGeometry x="50" y="252.5" width="60" height="30" as="geometry" />
        </mxCell>
        <mxCell id="jW0h0iekPydfrRsHZEFX-67" value="Lugar" style="text;html=1;align=center;verticalAlign=middle;whiteSpace=wrap;rounded=0;" parent="1" vertex="1">
          <mxGeometry x="30" y="282.5" width="60" height="30" as="geometry" />
        </mxCell>
        <mxCell id="jW0h0iekPydfrRsHZEFX-68" value="" style="ellipse;whiteSpace=wrap;html=1;aspect=fixed;fillColor=none;" parent="1" vertex="1">
          <mxGeometry x="80" y="295" width="10" height="10" as="geometry" />
        </mxCell>
        <mxCell id="jW0h0iekPydfrRsHZEFX-69" value="" style="endArrow=none;html=1;rounded=0;exitX=0;exitY=0.75;exitDx=0;exitDy=0;" parent="1" source="jW0h0iekPydfrRsHZEFX-15" edge="1">
          <mxGeometry width="50" height="50" relative="1" as="geometry">
            <mxPoint x="54" y="300" as="sourcePoint" />
            <mxPoint x="90" y="300" as="targetPoint" />
          </mxGeometry>
        </mxCell>
        <mxCell id="jW0h0iekPydfrRsHZEFX-70" value="" style="ellipse;whiteSpace=wrap;html=1;aspect=fixed;fillColor=black;" parent="1" vertex="1">
          <mxGeometry x="174" y="485" width="10" height="10" as="geometry" />
        </mxCell>
        <mxCell id="jW0h0iekPydfrRsHZEFX-71" value="" style="endArrow=none;html=1;rounded=0;entryX=0.5;entryY=1;entryDx=0;entryDy=0;exitX=0.75;exitY=0;exitDx=0;exitDy=0;" parent="1" target="jW0h0iekPydfrRsHZEFX-70" edge="1">
          <mxGeometry width="50" height="50" relative="1" as="geometry">
            <mxPoint x="179.21000000000004" y="520" as="sourcePoint" />
            <mxPoint x="-98.78999999999996" y="610" as="targetPoint" />
          </mxGeometry>
        </mxCell>
        <mxCell id="jW0h0iekPydfrRsHZEFX-72" value="Id_usuario" style="text;html=1;align=center;verticalAlign=middle;whiteSpace=wrap;rounded=0;" parent="1" vertex="1">
          <mxGeometry x="140" y="455" width="60" height="30" as="geometry" />
        </mxCell>
        <mxCell id="jW0h0iekPydfrRsHZEFX-73" value="" style="ellipse;whiteSpace=wrap;html=1;aspect=fixed;fillColor=none;" parent="1" vertex="1">
          <mxGeometry x="196" y="495" width="10" height="10" as="geometry" />
        </mxCell>
        <mxCell id="jW0h0iekPydfrRsHZEFX-74" value="" style="endArrow=none;html=1;rounded=0;entryX=0.5;entryY=1;entryDx=0;entryDy=0;exitX=0.27;exitY=0;exitDx=0;exitDy=0;exitPerimeter=0;" parent="1" target="jW0h0iekPydfrRsHZEFX-73" edge="1">
          <mxGeometry width="50" height="50" relative="1" as="geometry">
            <mxPoint x="201" y="520" as="sourcePoint" />
            <mxPoint x="-76.78999999999996" y="620" as="targetPoint" />
          </mxGeometry>
        </mxCell>
        <mxCell id="jW0h0iekPydfrRsHZEFX-75" value="Nombre" style="text;html=1;align=center;verticalAlign=middle;whiteSpace=wrap;rounded=0;" parent="1" vertex="1">
          <mxGeometry x="194" y="475" width="60" height="30" as="geometry" />
        </mxCell>
        <mxCell id="jW0h0iekPydfrRsHZEFX-76" value="" style="ellipse;whiteSpace=wrap;html=1;aspect=fixed;fillColor=none;" parent="1" vertex="1">
          <mxGeometry x="243.5" y="495" width="10" height="10" as="geometry" />
        </mxCell>
        <mxCell id="jW0h0iekPydfrRsHZEFX-77" value="" style="endArrow=none;html=1;rounded=0;entryX=0.5;entryY=1;entryDx=0;entryDy=0;exitX=0.27;exitY=0;exitDx=0;exitDy=0;exitPerimeter=0;" parent="1" target="jW0h0iekPydfrRsHZEFX-76" edge="1">
          <mxGeometry width="50" height="50" relative="1" as="geometry">
            <mxPoint x="248.5" y="520" as="sourcePoint" />
            <mxPoint x="-29.289999999999964" y="620" as="targetPoint" />
          </mxGeometry>
        </mxCell>
        <mxCell id="jW0h0iekPydfrRsHZEFX-78" value="Correo" style="text;html=1;align=center;verticalAlign=middle;whiteSpace=wrap;rounded=0;" parent="1" vertex="1">
          <mxGeometry x="241.5" y="475" width="60" height="30" as="geometry" />
        </mxCell>
        <mxCell id="jW0h0iekPydfrRsHZEFX-79" value="" style="ellipse;whiteSpace=wrap;html=1;aspect=fixed;fillColor=none;" parent="1" vertex="1">
          <mxGeometry x="281.5" y="535" width="10" height="10" as="geometry" />
        </mxCell>
        <mxCell id="jW0h0iekPydfrRsHZEFX-80" value="" style="endArrow=none;html=1;rounded=0;exitX=1;exitY=0.5;exitDx=0;exitDy=0;entryX=0;entryY=0.5;entryDx=0;entryDy=0;" parent="1" source="jW0h0iekPydfrRsHZEFX-22" target="jW0h0iekPydfrRsHZEFX-79" edge="1">
          <mxGeometry width="50" height="50" relative="1" as="geometry">
            <mxPoint x="287" y="562.5" as="sourcePoint" />
            <mxPoint x="290" y="560" as="targetPoint" />
          </mxGeometry>
        </mxCell>
        <mxCell id="jW0h0iekPydfrRsHZEFX-81" value="Contraseña" style="text;html=1;align=center;verticalAlign=middle;whiteSpace=wrap;rounded=0;" parent="1" vertex="1">
          <mxGeometry x="291.5" y="515" width="60" height="30" as="geometry" />
        </mxCell>
        <mxCell id="jW0h0iekPydfrRsHZEFX-83" value="&lt;font style=&quot;font-size: 12px;&quot;&gt;(1,1)&lt;/font&gt;" style="text;html=1;align=center;verticalAlign=middle;whiteSpace=wrap;rounded=0;" parent="1" vertex="1">
          <mxGeometry x="570" y="115" width="60" height="30" as="geometry" />
        </mxCell>
        <mxCell id="jW0h0iekPydfrRsHZEFX-84" value="&lt;font style=&quot;font-size: 12px;&quot;&gt;(1,1)&lt;/font&gt;" style="text;html=1;align=center;verticalAlign=middle;whiteSpace=wrap;rounded=0;" parent="1" vertex="1">
          <mxGeometry x="214" y="155" width="60" height="30" as="geometry" />
        </mxCell>
        <mxCell id="jW0h0iekPydfrRsHZEFX-85" value="&lt;font style=&quot;font-size: 12px;&quot;&gt;(0,1)&lt;/font&gt;" style="text;html=1;align=center;verticalAlign=middle;whiteSpace=wrap;rounded=0;" parent="1" vertex="1">
          <mxGeometry x="275" y="245" width="60" height="30" as="geometry" />
        </mxCell>
        <mxCell id="jW0h0iekPydfrRsHZEFX-87" value="&lt;font style=&quot;font-size: 12px;&quot;&gt;(0,1)&lt;/font&gt;" style="text;html=1;align=center;verticalAlign=middle;whiteSpace=wrap;rounded=0;" parent="1" vertex="1">
          <mxGeometry x="121.5" y="245" width="60" height="30" as="geometry" />
        </mxCell>
        <mxCell id="jW0h0iekPydfrRsHZEFX-88" value="1:N" style="text;html=1;align=center;verticalAlign=middle;resizable=0;points=[];autosize=1;strokeColor=none;fillColor=none;" parent="1" vertex="1">
          <mxGeometry x="420" y="180" width="40" height="30" as="geometry" />
        </mxCell>
        <mxCell id="jW0h0iekPydfrRsHZEFX-89" value="&lt;font style=&quot;font-size: 12px;&quot;&gt;(1,N)&lt;/font&gt;" style="text;html=1;align=center;verticalAlign=middle;whiteSpace=wrap;rounded=0;" parent="1" vertex="1">
          <mxGeometry x="270" y="115" width="60" height="30" as="geometry" />
        </mxCell>
        <mxCell id="jW0h0iekPydfrRsHZEFX-90" value="N:M" style="text;html=1;align=center;verticalAlign=middle;resizable=0;points=[];autosize=1;strokeColor=none;fillColor=none;" parent="1" vertex="1">
          <mxGeometry x="75" y="395" width="50" height="30" as="geometry" />
        </mxCell>
        <mxCell id="jW0h0iekPydfrRsHZEFX-91" value="&lt;font style=&quot;font-size: 12px;&quot;&gt;(1,N)&lt;/font&gt;" style="text;html=1;align=center;verticalAlign=middle;whiteSpace=wrap;rounded=0;" parent="1" vertex="1">
          <mxGeometry x="120" y="115" width="60" height="30" as="geometry" />
        </mxCell>
        <mxCell id="jW0h0iekPydfrRsHZEFX-92" value="&lt;font style=&quot;font-size: 12px;&quot;&gt;(1,N)&lt;/font&gt;" style="text;html=1;align=center;verticalAlign=middle;whiteSpace=wrap;rounded=0;" parent="1" vertex="1">
          <mxGeometry x="114" y="515" width="60" height="30" as="geometry" />
        </mxCell>
        <mxCell id="jW0h0iekPydfrRsHZEFX-93" value="" style="endArrow=classic;html=1;rounded=0;entryX=0;entryY=0.5;entryDx=0;entryDy=0;" parent="1" target="jW0h0iekPydfrRsHZEFX-26" edge="1">
          <mxGeometry width="50" height="50" relative="1" as="geometry">
            <mxPoint x="40" y="140" as="sourcePoint" />
            <mxPoint x="260" y="260" as="targetPoint" />
          </mxGeometry>
        </mxCell>
        <mxCell id="jW0h0iekPydfrRsHZEFX-94" value="" style="endArrow=classic;html=1;rounded=0;entryX=0;entryY=0.5;entryDx=0;entryDy=0;" parent="1" target="jW0h0iekPydfrRsHZEFX-22" edge="1">
          <mxGeometry width="50" height="50" relative="1" as="geometry">
            <mxPoint x="40" y="540" as="sourcePoint" />
            <mxPoint x="180" y="390" as="targetPoint" />
          </mxGeometry>
        </mxCell>
        <mxCell id="jW0h0iekPydfrRsHZEFX-95" value="" style="endArrow=classic;html=1;rounded=0;entryX=1;entryY=0.5;entryDx=0;entryDy=0;exitX=0;exitY=0.5;exitDx=0;exitDy=0;" parent="1" source="jW0h0iekPydfrRsHZEFX-3" target="jW0h0iekPydfrRsHZEFX-26" edge="1">
          <mxGeometry width="50" height="50" relative="1" as="geometry">
            <mxPoint x="350" y="270" as="sourcePoint" />
            <mxPoint x="400" y="220" as="targetPoint" />
          </mxGeometry>
        </mxCell>
        <mxCell id="QlrN5AXjQIctAt8h1hYK-1" value="" style="endArrow=none;html=1;rounded=0;entryX=0.908;entryY=0.981;entryDx=0;entryDy=0;exitX=0;exitY=0;exitDx=0;exitDy=0;entryPerimeter=0;" edge="1" parent="1" target="QlrN5AXjQIctAt8h1hYK-2">
          <mxGeometry width="50" height="50" relative="1" as="geometry">
            <mxPoint x="417.71000000000004" y="120.00000000000001" as="sourcePoint" />
            <mxPoint x="457.71000000000004" y="120.00000000000001" as="targetPoint" />
          </mxGeometry>
        </mxCell>
        <mxCell id="QlrN5AXjQIctAt8h1hYK-2" value="&lt;font style=&quot;font-size: 8px;&quot;&gt;Id.&lt;/font&gt;" style="text;html=1;align=center;verticalAlign=middle;whiteSpace=wrap;rounded=0;" vertex="1" parent="1">
          <mxGeometry x="415" y="100.00000000000001" width="50" height="20" as="geometry" />
        </mxCell>
        <mxCell id="QlrN5AXjQIctAt8h1hYK-3" value="" style="endArrow=none;html=1;rounded=0;" edge="1" parent="1">
          <mxGeometry width="50" height="50" relative="1" as="geometry">
            <mxPoint x="510" y="140" as="sourcePoint" />
            <mxPoint x="510" y="70" as="targetPoint" />
          </mxGeometry>
        </mxCell>
        <mxCell id="QlrN5AXjQIctAt8h1hYK-4" value="" style="ellipse;whiteSpace=wrap;html=1;aspect=fixed;fillColor=black;" vertex="1" parent="1">
          <mxGeometry x="154" y="65" width="10" height="10" as="geometry" />
        </mxCell>
        <mxCell id="QlrN5AXjQIctAt8h1hYK-5" value="" style="endArrow=none;html=1;rounded=0;entryX=1;entryY=0.5;entryDx=0;entryDy=0;" edge="1" parent="1" target="QlrN5AXjQIctAt8h1hYK-4">
          <mxGeometry width="50" height="50" relative="1" as="geometry">
            <mxPoint x="510" y="70" as="sourcePoint" />
            <mxPoint x="-118.78999999999996" y="195" as="targetPoint" />
          </mxGeometry>
        </mxCell>
        <mxCell id="QlrN5AXjQIctAt8h1hYK-6" value="Id_organizador" style="text;html=1;align=center;verticalAlign=middle;whiteSpace=wrap;rounded=0;" vertex="1" parent="1">
          <mxGeometry x="80" y="50" width="60" height="30" as="geometry" />
        </mxCell>
        <mxCell id="QlrN5AXjQIctAt8h1hYK-7" value="" style="ellipse;whiteSpace=wrap;html=1;aspect=fixed;fillColor=none;" vertex="1" parent="1">
          <mxGeometry x="100" y="315" width="10" height="10" as="geometry" />
        </mxCell>
        <mxCell id="QlrN5AXjQIctAt8h1hYK-8" value="" style="endArrow=none;html=1;rounded=0;exitX=0;exitY=1;exitDx=0;exitDy=0;" edge="1" parent="1" source="jW0h0iekPydfrRsHZEFX-15">
          <mxGeometry width="50" height="50" relative="1" as="geometry">
            <mxPoint x="140" y="320" as="sourcePoint" />
            <mxPoint x="110" y="320" as="targetPoint" />
          </mxGeometry>
        </mxCell>
        <mxCell id="QlrN5AXjQIctAt8h1hYK-10" value="Ciudad" style="text;html=1;align=center;verticalAlign=middle;whiteSpace=wrap;rounded=0;" vertex="1" parent="1">
          <mxGeometry x="50" y="310" width="60" height="30" as="geometry" />
        </mxCell>
        <mxCell id="QlrN5AXjQIctAt8h1hYK-11" value="" style="ellipse;whiteSpace=wrap;html=1;aspect=fixed;fillColor=none;" vertex="1" parent="1">
          <mxGeometry x="126" y="325" width="10" height="10" as="geometry" />
        </mxCell>
        <mxCell id="QlrN5AXjQIctAt8h1hYK-12" value="" style="endArrow=none;html=1;rounded=0;entryX=0.5;entryY=0;entryDx=0;entryDy=0;exitX=0.109;exitY=1.024;exitDx=0;exitDy=0;exitPerimeter=0;" edge="1" parent="1" target="QlrN5AXjQIctAt8h1hYK-11" source="jW0h0iekPydfrRsHZEFX-15">
          <mxGeometry width="50" height="50" relative="1" as="geometry">
            <mxPoint x="100" y="330" as="sourcePoint" />
            <mxPoint x="-146.78999999999996" y="450" as="targetPoint" />
          </mxGeometry>
        </mxCell>
        <mxCell id="QlrN5AXjQIctAt8h1hYK-14" value="Provincia" style="text;html=1;align=center;verticalAlign=middle;whiteSpace=wrap;rounded=0;" vertex="1" parent="1">
          <mxGeometry x="134" y="315" width="60" height="30" as="geometry" />
        </mxCell>
      </root>
    </mxGraphModel>
  </diagram>
</mxfile>
